HIERARCHY
ROOT hip
{
	OFFSET 0.000000 0.000000 0.000000
	CHANNELS 6 Xposition Yposition Zposition Zrotation Yrotation Xrotation 
	JOINT lhipjoint
	{
		OFFSET 0.000000 0.000000 0.000000
		CHANNELS 3 Zrotation Yrotation Xrotation
		JOINT lfemur
		{
			OFFSET 1.363060 -1.794630 0.839290
			CHANNELS 3 Zrotation Yrotation Xrotation
			JOINT ltibia
			{
				OFFSET 2.448110 -6.726130 0.000000
				CHANNELS 3 Zrotation Yrotation Xrotation
				JOINT lfoot
				{
					OFFSET 2.562200 -7.039590 0.000000
					CHANNELS 3 Zrotation Yrotation Xrotation
					JOINT ltoes
					{
						OFFSET 0.157640 -0.433110 2.322550
						CHANNELS 3 Zrotation Yrotation Xrotation
						End Site
						{
							OFFSET 0.000000 0.000000 0.000000
						}
					}
				}
			}
		}
	}
	JOINT rhipjoint
	{
		OFFSET 0.000000 0.000000 0.000000
		CHANNELS 3 Zrotation Yrotation Xrotation
		JOINT rfemur
		{
			OFFSET -1.305520 -1.794630 0.839290
			CHANNELS 3 Zrotation Yrotation Xrotation
			JOINT rtibia
			{
				OFFSET -2.542530 -6.985550 0.000000
				CHANNELS 3 Zrotation Yrotation Xrotation
				JOINT rfoot
				{
					OFFSET -2.568260 -7.056230 0.000000
					CHANNELS 3 Zrotation Yrotation Xrotation
					JOINT rtoes
					{
						OFFSET -0.164730 -0.452590 2.363150
						CHANNELS 3 Zrotation Yrotation Xrotation
						End Site
						{
							OFFSET 0.000000 0.000000 0.000000
						}
					}
				}
			}
		}
	}
	JOINT lowerback
	{
		OFFSET 0.000000 0.000000 0.000000
		CHANNELS 3 Zrotation Yrotation Xrotation
		JOINT upperback
		{
			OFFSET 0.028270 2.035590 -0.193380
			CHANNELS 3 Zrotation Yrotation Xrotation
			JOINT thorax
			{
				OFFSET 0.056720 2.048850 -0.042750
				CHANNELS 3 Zrotation Yrotation Xrotation
				JOINT lowerneck
				{
					OFFSET 0.000000 0.000000 0.000000
					CHANNELS 3 Zrotation Yrotation Xrotation
					JOINT upperneck
					{
						OFFSET -0.054170 1.746240 0.172020
						CHANNELS 3 Zrotation Yrotation Xrotation
						JOINT head
						{
							OFFSET 0.104070 1.761360 -0.123970
							CHANNELS 3 Zrotation Yrotation Xrotation
							End Site
							{
								OFFSET 0.000000 0.000000 0.000000
							}
						}
					}
				}
				JOINT lclavicle
				{
					OFFSET 0.000000 0.000000 0.000000
					CHANNELS 3 Zrotation Yrotation Xrotation
					JOINT lhumerus
					{
						OFFSET 3.362410 1.200890 -0.311210
						CHANNELS 3 Zrotation Yrotation Xrotation
						JOINT lradius
						{
							OFFSET 4.983000 -0.000000 -0.000000
							CHANNELS 3 Zrotation Yrotation Xrotation
							JOINT lwrist
							{
								OFFSET 3.483560 -0.000000 -0.000000
								CHANNELS 3 Zrotation Yrotation Xrotation
								JOINT lhand
								{
									OFFSET 0.000000 0.000000 0.000000
									CHANNELS 3 Zrotation Yrotation Xrotation
									JOINT lfingers
									{
										OFFSET 0.715260 -0.000000 -0.000000
										CHANNELS 3 Zrotation Yrotation Xrotation
										End Site
										{
											OFFSET 0.000000 0.000000 0.000000
										}
									}
								}
								JOINT lthumb
								{
									OFFSET 0.000000 0.000000 0.000000
									CHANNELS 3 Zrotation Yrotation Xrotation
									End Site
									{
										OFFSET 0.000000 0.000000 0.000000
									}
								}
							}
						}
					}
				}
				JOINT rclavicle
				{
					OFFSET 0.000000 0.000000 0.000000
					CHANNELS 3 Zrotation Yrotation Xrotation
					JOINT rhumerus
					{
						OFFSET -3.136600 1.374050 -0.404650
						CHANNELS 3 Zrotation Yrotation Xrotation
						JOINT rradius
						{
							OFFSET -5.241900 -0.000000 -0.000000
							CHANNELS 3 Zrotation Yrotation Xrotation
							JOINT rwrist
							{
								OFFSET -3.444170 -0.000000 -0.000000
								CHANNELS 3 Zrotation Yrotation Xrotation
								JOINT rhand
								{
									OFFSET 0.000000 0.000000 0.000000
									CHANNELS 3 Zrotation Yrotation Xrotation
									JOINT rfingers
									{
										OFFSET -0.622530 -0.000000 -0.000000
										CHANNELS 3 Zrotation Yrotation Xrotation
										End Site
										{
											OFFSET 0.000000 0.000000 0.000000
										}
									}
								}
								JOINT rthumb
								{
									OFFSET 0.000000 0.000000 0.000000
									CHANNELS 3 Zrotation Yrotation Xrotation
									End Site
									{
										OFFSET 0.000000 0.000000 0.000000
									}
								}
							}
						}
					}
				}
			}
		}
	}
}
MOTION
Frames: 12
Frame Time: 0.008333
1.739160 16.724420 6.479546 -176.706774 -13.193708 179.067314 -4.408915 -3.472988 -1.489500 -10.002612 9.066637 -13.554509 4.662462 13.904725 38.217454 0.663668 -17.581934 -16.731251 0.368200 -3.897400 -10.788200 3.554709 2.582096 -1.353531 10.802000 4.689391 -22.930858 -7.687950 -14.266104 45.405718 -0.627709 5.752084 -11.796363 -0.288000 3.451500 -9.538400 2.033400 0.131211 3.707950 1.006141 -0.428789 -2.926213 -5.773137 -0.533128 11.526565 -2.707895 -0.947793 -8.657372 5.117909 -4.212753 32.515105 0.099200 -1.792900 8.138700 -4.773011 -3.273010 3.423132 -76.009051 -4.221058 24.551048 18.501710 -31.284775 -5.387337 -0.641568 0.419892 -34.667785 4.952164 2.789678 0.190400 -7.125000 0.000000 0.000000 -16.982500 31.746300 5.728800 5.964539 3.836749 4.105004 79.054362 -5.998526 18.386122 -11.985272 32.758237 -3.073723 -0.079326 -1.832116 6.369970 -8.858800 8.436943 -1.618100 7.125000 0.000000 0.000000 12.752700 -19.696800 7.904800 
1.726440 16.733020 6.479546 -176.638059 -13.278865 179.214324 -4.403038 -3.460277 -1.482926 -9.938731 9.265908 -13.760587 4.639555 13.875092 38.121719 0.628636 -17.929925 -16.617503 0.391000 -4.015300 -11.119700 3.584817 2.539739 -1.298452 10.985054 4.510094 -23.345913 -7.779553 -14.319171 45.773518 -0.627623 6.217176 -11.524728 -0.285400 3.435800 -9.494600 1.874714 0.031112 3.577912 0.971228 -0.540387 -2.983129 -5.910950 -0.574956 11.334112 -2.678479 -0.772620 -8.601981 5.314130 -4.089437 32.622662 0.165000 -1.722500 8.183300 -4.752103 -3.327434 3.414769 -76.400875 -4.235576 23.382658 18.055617 -30.788446 -5.232794 -0.683035 0.478251 -35.362506 6.054187 2.536183 0.193800 -7.125000 0.000000 0.000000 -16.075400 31.464500 5.513400 5.918600 3.904084 4.075493 79.220694 -6.545036 18.798790 -11.966355 32.803299 -3.043705 -0.066170 -1.829431 6.328244 -8.549638 8.364078 -1.551900 7.125000 0.000000 0.000000 12.966200 -19.785700 8.017600 
1.713809 16.741978 6.478830 -176.558838 -13.351811 179.375358 -4.399715 -3.446323 -1.477014 -9.858106 9.483625 -13.999005 4.619625 13.850250 38.043747 0.597457 -18.243127 -16.531240 0.429200 -4.204600 -11.652900 3.614357 2.494174 -1.241409 11.186700 4.338587 -23.794850 -7.878887 -14.373594 46.166535 -0.626150 6.790898 -11.198138 -0.279100 3.397900 -9.388700 1.723623 -0.071138 3.416366 0.944335 -0.655933 -3.034448 -6.004952 -0.620719 11.189276 -2.696139 -0.612060 -8.619607 5.483934 -3.965098 32.750200 0.233600 -1.656900 8.251200 -4.738738 -3.371909 3.406356 -76.753242 -4.293512 22.392897 17.612807 -30.293807 -5.085133 -0.731688 0.548818 -35.433014 7.417494 2.256342 0.186100 -7.125000 0.000000 0.000000 -14.956900 31.147000 5.222900 5.886601 3.960946 4.047393 79.299301 -7.058260 19.294980 -11.998129 32.882540 -3.024881 -0.048503 -1.827024 6.248595 -8.237881 8.242196 -1.479500 7.125000 0.000000 0.000000 13.182600 -19.922400 8.117100 
1.701268 16.749592 6.478023 -176.493403 -13.427041 179.525209 -4.397703 -3.431635 -1.469834 -9.796287 9.688574 -14.238707 4.605783 13.831281 37.990624 0.574226 -18.512798 -16.492582 0.476400 -4.426600 -12.280200 3.645817 2.450124 -1.184222 11.373695 4.161566 -24.238967 -7.982813 -14.433490 46.581628 -0.621334 7.445530 -10.815046 -0.261900 3.292500 -9.094100 1.565345 -0.181318 3.278410 0.919237 -0.780531 -3.089475 -6.088974 -0.672745 11.009325 -2.722856 -0.437736 -8.543627 5.644967 -3.818894 32.820555 0.301900 -1.584300 8.274400 -4.728403 -3.424214 3.402362 -77.054081 -4.309085 21.519699 17.169560 -29.797417 -4.943221 -0.779058 0.622754 -34.775405 8.871491 2.015094 0.168800 -7.125000 0.000000 0.000000 -13.770400 30.862100 4.882500 5.861311 4.020804 4.020215 79.362420 -7.604071 19.777965 -12.071605 32.990604 -3.013867 -0.025981 -1.823872 6.165656 -7.869847 8.094537 -1.395700 7.125000 0.000000 0.000000 13.437400 -20.087000 8.231800 
1.689802 16.755683 6.476232 -176.443575 -13.482561 179.680997 -4.396433 -3.417287 -1.461893 -9.735592 9.982876 -14.526841 4.593942 13.817349 37.954344 0.535763 -18.855977 -16.369427 0.511600 -4.584800 -12.728000 3.678112 2.405109 -1.126272 11.551872 4.041624 -24.682301 -8.094342 -14.496543 47.024273 -0.613357 8.112190 -10.398127 -0.243700 3.176600 -8.770900 1.388496 -0.280243 3.129613 0.894418 -0.889714 -3.142014 -6.149600 -0.719810 10.845960 -2.778136 -0.265063 -8.483882 5.822123 -3.676207 32.891253 0.381600 -1.514600 8.300200 -4.723866 -3.475120 3.400600 -77.290925 -4.322258 20.782370 16.723583 -29.300152 -4.806103 -0.822069 0.699809 -33.474320 10.409025 1.813262 0.143500 -7.125000 0.000000 0.000000 -12.520800 30.611900 4.496000 5.841307 4.073311 3.993267 79.391505 -8.126266 20.256257 -12.146128 33.090840 -3.003255 -0.001362 -1.818934 6.127885 -7.501899 7.917707 -1.310200 7.125000 0.000000 0.000000 13.692900 -20.281000 8.335900 
1.678247 16.760700 6.474440 -176.378412 -13.538322 179.826074 -4.396631 -3.403785 -1.453480 -9.657923 10.268065 -14.814624 4.587515 13.810531 37.944965 0.490286 -19.240364 -16.217236 0.539400 -4.705500 -13.070600 3.708777 2.360980 -1.069687 11.754495 3.912162 -25.119200 -8.210669 -14.563691 47.483803 -0.602610 8.827232 -9.953859 -0.241900 3.164800 -8.738000 1.240467 -0.385114 2.986309 0.872370 -1.008025 -3.195514 -6.217591 -0.770318 10.675750 -2.821030 -0.093989 -8.404702 5.959661 -3.527503 32.971909 0.446500 -1.445700 8.323700 -4.723175 -3.523863 3.400169 -77.475976 -4.312587 20.164002 16.296386 -28.821860 -4.683494 -0.863085 0.775124 -31.753552 12.029125 1.741749 0.132200 -7.125000 0.000000 0.000000 -11.216100 30.488900 4.043800 5.827719 4.128898 3.967359 79.399526 -8.655702 20.753664 -12.255280 33.216282 -3.000390 0.029040 -1.816830 6.081263 -7.118580 7.669678 -1.216700 7.125000 0.000000 0.000000 13.961000 -20.541800 8.424500 
1.667229 16.764014 6.472290 -176.342099 -13.576753 179.957710 -4.395276 -3.392827 -1.445949 -9.608597 10.609776 -15.105240 4.584178 13.809472 37.953347 0.435358 -19.670903 -16.016503 0.552000 -4.759600 -13.224200 3.741658 2.321380 -1.016725 11.932293 3.801426 -25.529938 -8.331216 -14.637450 47.965752 -0.589655 9.507008 -9.515736 -0.264000 3.305500 -9.130600 1.071526 -0.474340 2.861790 0.843698 -1.109039 -3.243209 -6.300763 -0.814363 10.522106 -2.858688 0.075110 -8.326845 6.139944 -3.391350 33.019945 0.523500 -1.377700 8.334100 -4.727670 -3.570966 3.403517 -77.607364 -4.342625 19.611239 15.857876 -28.328792 -4.565507 -0.902301 0.848899 -29.523823 13.767814 1.855111 0.160400 -7.125000 0.000000 0.000000 -9.826000 30.553400 3.512900 5.814048 4.174878 3.941466 79.415397 -9.139240 21.226219 -12.383449 33.357596 -3.000109 0.067215 -1.814159 6.035571 -6.649954 7.365666 -1.107000 7.125000 0.000000 0.000000 14.289800 -20.859500 8.529600 
1.657106 16.765985 6.469424 -176.291247 -13.599456 -179.920720 -4.394995 -3.383157 -1.437822 -9.532272 10.982012 -15.408181 4.583647 13.814794 37.982316 0.372807 -20.147502 -15.796562 0.566300 -4.819800 -13.395200 3.770210 2.282469 -0.966509 12.135532 3.743273 -25.911888 -8.456908 -14.713452 48.461762 -0.577096 10.152716 -9.106427 -0.301200 3.528700 -9.754500 0.920593 -0.561691 2.742805 0.818261 -1.208774 -3.289151 -6.377560 -0.858505 10.373535 -2.888567 0.232224 -8.238923 6.266966 -3.250323 33.058527 0.581500 -1.311000 8.336800 -4.732361 -3.612315 3.407480 -77.714081 -4.354077 19.164422 15.452728 -27.872809 -4.468675 -0.939005 0.920368 -26.948249 15.600471 2.169124 0.251300 -7.125000 0.000000 0.000000 -8.365600 30.827900 2.924200 5.802979 4.219786 3.918242 79.415942 -9.583321 21.647787 -12.501534 33.485163 -3.000878 0.100143 -1.808338 6.028949 -6.228092 7.122386 -1.015200 7.125000 0.000000 0.000000 14.585700 -21.117400 8.629900 
1.647163 16.765895 6.466378 -176.268307 -13.626771 -179.834785 -4.392696 -3.377324 -1.431711 -9.487918 11.357222 -15.669802 4.585733 13.825055 38.024028 0.313910 -20.581184 -15.587384 0.585000 -4.897400 -13.616200 3.798534 2.253980 -0.925782 12.311679 3.666865 -26.234729 -8.582558 -14.798107 48.968003 -0.563335 10.754156 -8.716665 -0.330600 3.695500 -10.221600 0.757987 -0.644091 2.658947 0.788741 -1.307491 -3.325092 -6.475417 -0.904843 10.256549 -2.895961 0.385959 -8.176783 6.395703 -3.105315 33.077415 0.635700 -1.237400 8.336300 -4.743571 -3.645267 3.413794 -77.747908 -4.397305 18.826839 15.066996 -27.437167 -4.381931 -0.969102 0.981868 -24.134109 17.371304 2.694807 0.431200 -7.125000 0.000000 0.000000 -6.953500 31.340100 2.337500 5.790206 4.255833 3.898237 79.420606 -9.955208 22.040586 -12.601981 33.604388 -3.004874 0.112791 -1.800488 6.036831 -5.979426 7.091306 -0.973600 7.125000 0.000000 0.000000 14.756200 -21.163200 8.721800 
1.638743 16.765089 6.462974 -176.260504 -13.638379 -179.774295 -4.389189 -3.371494 -1.425801 -9.458441 11.698743 -15.880478 4.588734 13.839060 38.070942 0.256480 -21.009302 -15.396173 0.591900 -4.925400 -13.695900 3.821919 2.231104 -0.891362 12.487200 3.651846 -26.494280 -8.711577 -14.886951 49.486503 -0.553259 11.244790 -8.397594 -0.364200 3.876700 -10.730200 0.560971 -0.725604 2.613578 0.761511 -1.404526 -3.356798 -6.539298 -0.956541 10.144602 -2.898421 0.512359 -8.154491 6.467073 -2.972424 33.106709 0.668100 -1.172000 8.351600 -4.753204 -3.671407 3.417612 -77.783519 -4.435957 18.525071 14.697382 -27.020839 -4.305022 -0.992222 1.038695 -21.046366 19.089667 3.411568 0.715100 -7.125000 0.000000 0.000000 -5.577200 32.074400 1.771600 5.782527 4.293244 3.879533 79.409718 -10.295154 22.361978 -12.727162 33.734081 -3.014112 0.132203 -1.789730 6.032230 -5.643734 7.023556 -0.915600 7.125000 0.000000 0.000000 14.987200 -21.249900 8.837500 
1.630322 16.762133 6.458854 -176.253300 -13.647807 -179.759993 -4.383502 -3.368155 -1.421713 -9.434764 11.968761 -16.012644 4.593904 13.856860 38.125395 0.218529 -21.314289 -15.290301 0.609500 -4.996900 -13.899700 3.838700 2.216524 -0.867084 12.675229 3.657006 -26.672907 -8.839952 -14.981866 50.005012 -0.547329 11.652048 -8.150050 -0.403600 4.078900 -11.298600 0.369137 -0.811874 2.605592 0.734735 -1.512464 -3.381119 -6.609594 -1.015390 10.052209 -2.889139 0.638267 -8.155950 6.514841 -2.827689 33.140374 0.691500 -1.100400 8.373400 -4.769648 -3.690792 3.422158 -77.766009 -4.467209 18.327516 14.362862 -26.643230 -4.240355 -1.007089 1.088611 -17.909202 20.715209 4.224754 1.084500 -7.125000 0.000000 0.000000 -4.263700 32.939000 1.262900 5.780810 4.327629 3.863545 79.363804 -10.609188 22.714947 -12.882199 33.887816 -3.030758 0.152633 -1.777754 5.986128 -5.293432 6.957988 -0.856300 7.125000 0.000000 0.000000 15.228900 -21.335100 8.959800 
1.623156 16.758371 6.453748 -176.260156 -13.643361 -179.756631 -4.376189 -3.362334 -1.419003 -9.438864 12.114475 -16.072737 4.602301 13.876141 38.183484 0.194511 -21.501950 -15.217163 0.605200 -4.979800 -13.851000 3.853886 2.203835 -0.845059 12.851435 3.691827 -26.821548 -8.970390 -15.078925 50.531032 -0.543270 11.986549 -7.930549 -0.449200 4.300000 -11.922300 0.160244 -0.887404 2.616677 0.706532 -1.606479 -3.403428 -6.671512 -1.070360 9.962573 -2.870505 0.745752 -8.193237 6.540284 -2.698826 33.189690 0.704600 -1.036200 8.412200 -4.787478 -3.706543 3.425145 -77.710531 -4.515515 18.240426 14.021157 -26.259740 -4.169495 -1.013389 1.132314 -14.741990 22.209906 5.098144 1.528800 -7.125000 0.000000 0.000000 -3.043200 33.897300 0.829800 5.780591 4.363068 3.846920 79.323691 -10.905560 22.974226 -13.040965 34.039458 -3.048663 0.176560 -1.761344 5.950579 -4.868249 6.892569 -0.786800 7.125000 0.000000 0.000000 15.521600 -21.425800 9.111900 
